<?xml version="1.0" encoding="UTF-8" standalone="no"?>
<!-- Created with Inkscape (http://www.inkscape.org/) -->

<svg
   width="30.588488mm"
   height="36.361382mm"
   viewBox="0 0 101.96163 121.20461"
   version="1.1"
   id="svg1"
   inkscape:version="1.3.2 (091e20e, 2023-11-25, custom)"
   sodipodi:docname="results.svg"
   inkscape:export-filename="results.png"
   inkscape:export-xdpi="96"
   inkscape:export-ydpi="96"
   xmlns:inkscape="http://www.inkscape.org/namespaces/inkscape"
   xmlns:sodipodi="http://sodipodi.sourceforge.net/DTD/sodipodi-0.dtd"
   xmlns="http://www.w3.org/2000/svg"
   xmlns:svg="http://www.w3.org/2000/svg">
  <sodipodi:namedview
     id="namedview1"
     pagecolor="#505050"
     bordercolor="#eeeeee"
     borderopacity="1"
     inkscape:showpageshadow="0"
     inkscape:pageopacity="0"
     inkscape:pagecheckerboard="0"
     inkscape:deskcolor="#505050"
     inkscape:document-units="mm"
     inkscape:zoom="4.179882"
     inkscape:cx="60.647645"
     inkscape:cy="25.479188"
     inkscape:window-width="2560"
     inkscape:window-height="1369"
     inkscape:window-x="1592"
     inkscape:window-y="-8"
     inkscape:window-maximized="1"
     inkscape:current-layer="layer1" />
  <defs
     id="defs1">
    <inkscape:path-effect
       effect="bspline"
       id="path-effect7"
       is_visible="true"
       lpeversion="1.3"
       weight="33.333333"
       steps="2"
       helper_size="0"
       apply_no_weight="true"
       apply_with_weight="true"
       only_selected="false"
       uniform="false" />
    <inkscape:path-effect
       effect="bspline"
       id="path-effect6"
       is_visible="true"
       lpeversion="1.3"
       weight="33.333333"
       steps="2"
       helper_size="0"
       apply_no_weight="true"
       apply_with_weight="true"
       only_selected="false"
       uniform="false" />
    <inkscape:path-effect
       effect="bspline"
       id="path-effect5"
       is_visible="true"
       lpeversion="1.3"
       weight="33.333333"
       steps="2"
       helper_size="0"
       apply_no_weight="true"
       apply_with_weight="true"
       only_selected="false"
       uniform="false" />
    <inkscape:path-effect
       effect="bspline"
       id="path-effect4"
       is_visible="true"
       lpeversion="1.3"
       weight="33.333333"
       steps="2"
       helper_size="0"
       apply_no_weight="true"
       apply_with_weight="true"
       only_selected="false"
       uniform="false" />
    <inkscape:path-effect
       effect="bspline"
       id="path-effect3"
       is_visible="true"
       lpeversion="1.3"
       weight="33.333333"
       steps="2"
       helper_size="0"
       apply_no_weight="true"
       apply_with_weight="true"
       only_selected="false"
       uniform="false" />
    <inkscape:path-effect
       effect="bspline"
       id="path-effect2"
       is_visible="true"
       lpeversion="1.3"
       weight="33.333333"
       steps="2"
       helper_size="0"
       apply_no_weight="true"
       apply_with_weight="true"
       only_selected="false"
       uniform="false" />
  </defs>
  <g
     inkscape:label="Layer 1"
     inkscape:groupmode="layer"
     id="layer1"
     transform="translate(-50.171352,-47.639385)">
    <path
       style="color:#000000;fill:#294e00;fill-opacity:0;stroke:none;stroke-opacity:0.97411;-inkscape-stroke:none;opacity:1"
       d="m 56.969306,50.639385 h 88.365724 c 2.10407,0 3.79795,1.693888 3.79795,3.797954 V 162.04604 c 0,2.10407 -1.69388,3.79796 -3.79795,3.79796 H 56.969306 c -2.104066,0 -3.797954,-1.69389 -3.797954,-3.79796 V 54.437339 c 0,-2.104066 1.693888,-3.797954 3.797954,-3.797954 z"
       id="path1" />
    <path
       style="color:#000000;fill:#073b4d;stroke:none;stroke-opacity:0.97411;-inkscape-stroke:none;opacity:1;fill-opacity:1"
       d="m 56.96875,47.638672 c -3.714171,0 -6.796875,3.084657 -6.796875,6.798828 v 107.60937 c 0,3.71418 3.082704,6.79688 6.796875,6.79688 h 88.36719 c 3.71417,0 6.79687,-3.0827 6.79687,-6.79688 V 54.4375 c 0,-3.714171 -3.0827,-6.798828 -6.79687,-6.798828 z m 0,6 h 88.36719 c 0.49396,0 0.79687,0.30487 0.79687,0.798828 v 107.60937 c 0,0.49396 -0.30291,0.79688 -0.79687,0.79688 H 56.96875 c -0.493958,0 -0.796875,-0.30292 -0.796875,-0.79688 V 54.4375 c 0,-0.493958 0.302917,-0.798828 0.796875,-0.798828 z"
       id="path8" />
    <path
       style="color:#000000;fill:#294e00;fill-opacity:0;stroke:none;stroke-opacity:0.97411;-inkscape-stroke:none;opacity:1"
       d="m 63.713124,81.271782 h 74.878086 c 0.72271,0 1.30453,0.581818 1.30453,1.304524 v 6.261716 c 0,0.722706 -0.58182,1.304524 -1.30453,1.304524 H 63.713124 c -0.722706,0 -1.304524,-0.581818 -1.304524,-1.304524 v -6.261716 c 0,-0.722706 0.581818,-1.304524 1.304524,-1.304524 z"
       id="path9" />
    <path
       style="color:#000000;fill:#073b4d;stroke:none;stroke-opacity:0.97411;-inkscape-stroke:none;opacity:1;fill-opacity:1"
       d="m 63.712891,79.820312 c -1.501976,0 -2.75586,1.253884 -2.75586,2.75586 v 6.261719 c 0,1.501975 1.253884,2.755859 2.75586,2.755859 H 138.5918 c 1.50197,0 2.75586,-1.253884 2.75586,-2.755859 v -6.261719 c 0,-1.501976 -1.25389,-2.755859 -2.75586,-2.75586 z m 0.148437,2.904297 h 74.582032 v 5.966797 H 63.861328 Z"
       id="path10" />
    <path
       style="color:#000000;fill:#294e00;fill-opacity:0;stroke:none;stroke-opacity:0.97411;-inkscape-stroke:none;opacity:1"
       d="m 63.713124,102.12697 h 74.878086 c 0.72271,0 1.30453,0.58182 1.30453,1.30452 v 6.26172 c 0,0.7227 -0.58182,1.30452 -1.30453,1.30452 H 63.713124 c -0.722706,0 -1.304524,-0.58182 -1.304524,-1.30452 v -6.26172 c 0,-0.7227 0.581818,-1.30452 1.304524,-1.30452 z"
       id="path11" />
    <path
       style="color:#000000;fill:#073b4d;stroke:none;stroke-opacity:0.97411;-inkscape-stroke:none;opacity:1;fill-opacity:1"
       d="m 63.712891,100.67578 c -1.501976,0 -2.75586,1.25388 -2.75586,2.75586 v 6.26172 c 0,1.50198 1.253884,2.75586 2.75586,2.75586 H 138.5918 c 1.50197,0 2.75586,-1.25388 2.75586,-2.75586 v -6.26172 c 0,-1.50198 -1.25389,-2.75586 -2.75586,-2.75586 z m 0.148437,2.90235 h 74.582032 v 5.96679 H 63.861328 Z"
       id="path12" />
    <path
       style="color:#000000;fill:#294e00;fill-opacity:0;stroke:none;stroke-opacity:0.97411;-inkscape-stroke:none;opacity:1"
       d="m 63.713124,122.98215 h 74.878086 c 0.72271,0 1.30453,0.58182 1.30453,1.30452 v 6.26172 c 0,0.7227 -0.58182,1.30452 -1.30453,1.30452 H 63.713124 c -0.722706,0 -1.304524,-0.58182 -1.304524,-1.30452 v -6.26172 c 0,-0.7227 0.581818,-1.30452 1.304524,-1.30452 z"
       id="path13" />
    <path
       style="color:#000000;fill:#073b4d;stroke:none;stroke-opacity:0.97411;-inkscape-stroke:none;opacity:1;fill-opacity:1"
       d="m 63.712891,121.5293 c -1.501976,0 -2.75586,1.25583 -2.75586,2.75781 v 6.26172 c 0,1.50197 1.253884,2.75586 2.75586,2.75586 H 138.5918 c 1.50197,0 2.75586,-1.25389 2.75586,-2.75586 v -6.26172 c 0,-1.50198 -1.25389,-2.75781 -2.75586,-2.75781 z m 0.148437,2.90429 h 74.582032 v 5.9668 H 63.861328 Z"
       id="path14" />
    <path
       style="color:#000000;fill:#294e00;fill-opacity:0;stroke:none;stroke-opacity:0.97411;-inkscape-stroke:none;opacity:1"
       d="m 63.713124,143.83733 h 74.878086 c 0.72271,0 1.30453,0.58181 1.30453,1.30452 v 6.26172 c 0,0.7227 -0.58182,1.30452 -1.30453,1.30452 H 63.713124 c -0.722706,0 -1.304524,-0.58182 -1.304524,-1.30452 v -6.26172 c 0,-0.72271 0.581818,-1.30452 1.304524,-1.30452 z"
       id="path15" />
    <path
       style="color:#000000;fill:#073b4d;stroke:none;stroke-opacity:0.97411;-inkscape-stroke:none;opacity:1;fill-opacity:1"
       d="m 63.712891,142.38477 c -1.501976,0 -2.75586,1.25583 -2.75586,2.75781 v 6.26172 c 0,1.50197 1.253884,2.75586 2.75586,2.75586 H 138.5918 c 1.50197,0 2.75586,-1.25389 2.75586,-2.75586 v -6.26172 c 0,-1.50198 -1.25389,-2.75781 -2.75586,-2.75781 z m 0.148437,2.90429 h 74.582032 v 5.9668 H 63.861328 Z"
       id="path16" />
    <path
       style="color:#000000;fill:#294e00;fill-opacity:0;stroke:none;stroke-opacity:0.97411;-inkscape-stroke:none;opacity:1"
       d="m 141.34769,62.792839 c -12.11589,0 -24.23179,0 -36.34769,0"
       id="path17" />
    <path
       style="color:#000000;fill:#073b4d;stroke:none;stroke-opacity:0.97411;-inkscape-stroke:none;opacity:1;fill-opacity:1"
       d="m 105,61.84375 v 1.898437 h 36.34766 V 61.84375 Z"
       id="path18" />
    <path
       style="color:#000000;fill:#294e00;fill-opacity:0;stroke:none;stroke-opacity:0.97411;-inkscape-stroke:none;opacity:1"
       d="m 141.34769,71.907928 c -12.11589,0 -24.23179,0 -36.34769,0"
       id="path19" />
    <path
       style="color:#000000;fill:#073b4d;stroke:none;stroke-opacity:0.97411;-inkscape-stroke:none;opacity:1;fill-opacity:1"
       d="m 105,70.957031 v 1.900391 h 36.34766 v -1.900391 z"
       id="path20" />
    <path
       style="color:#000000;fill:#294e00;fill-opacity:0;stroke:none;stroke-opacity:0.97411;-inkscape-stroke:none;opacity:1"
       d="m 80.263425,81.271781 c 0,2.95692 0,5.913842 0,8.870765"
       id="path21" />
    <path
       style="color:#000000;fill:#073b4d;stroke:none;stroke-opacity:0.97411;-inkscape-stroke:none;opacity:1;fill-opacity:1"
       d="m 79.3125,81.271484 v 8.871094 h 1.900391 v -8.871094 z"
       id="path22" />
    <path
       style="color:#000000;fill:#294e00;fill-opacity:0;stroke:none;stroke-opacity:0.97411;-inkscape-stroke:none;opacity:1"
       d="m 118.74936,102.12697 c 0,2.95692 0,5.91384 0,8.87076"
       id="path23" />
    <path
       style="color:#000000;fill:#073b4d;stroke:none;stroke-opacity:0.97411;-inkscape-stroke:none;opacity:1;fill-opacity:1"
       d="m 117.79883,102.12695 v 8.8711 h 1.90039 v -8.8711 z"
       id="path24" />
    <path
       style="color:#000000;fill:#294e00;fill-opacity:0;stroke:none;stroke-opacity:0.97411;-inkscape-stroke:none;opacity:1"
       d="m 101.15217,122.98214 c 0,2.95693 0,5.91385 0,8.87077"
       id="path25" />
    <path
       style="color:#000000;fill:#073b4d;stroke:none;stroke-opacity:0.97411;-inkscape-stroke:none;opacity:1;fill-opacity:1"
       d="m 100.20313,122.98242 v 8.8711 h 1.89843 v -8.8711 z"
       id="path26" />
    <path
       style="color:#000000;fill:#294e00;fill-opacity:0;stroke:none;stroke-opacity:0.97411;-inkscape-stroke:none;opacity:1"
       d="m 88.11253,143.83732 c 0,2.95692 0,5.91385 0,8.87077"
       id="path27" />
    <path
       style="color:#000000;fill:#073b4d;stroke:none;stroke-opacity:0.97411;-inkscape-stroke:none;opacity:1;fill-opacity:1"
       d="m 87.162109,143.83789 v 8.87109 H 89.0625 v -8.87109 z"
       id="path28" />
  </g>
</svg>
