<?xml version="1.0" encoding="UTF-8" standalone="no"?>
<svg
   viewBox="0 0 961.2 485.681"
   version="1.1"
   id="svg5"
   sodipodi:docname="VetRA-Logo.svg"
   inkscape:version="1.3.2 (091e20e, 2023-11-25, custom)"
   xmlns:inkscape="http://www.inkscape.org/namespaces/inkscape"
   xmlns:sodipodi="http://sodipodi.sourceforge.net/DTD/sodipodi-0.dtd"
   xmlns="http://www.w3.org/2000/svg"
   xmlns:svg="http://www.w3.org/2000/svg">
  <sodipodi:namedview
     id="namedview5"
     pagecolor="#505050"
     bordercolor="#eeeeee"
     borderopacity="1"
     inkscape:showpageshadow="0"
     inkscape:pageopacity="0"
     inkscape:pagecheckerboard="0"
     inkscape:deskcolor="#505050"
     inkscape:zoom="0.43357261"
     inkscape:cx="573.14506"
     inkscape:cy="275.61704"
     inkscape:window-width="707"
     inkscape:window-height="567"
     inkscape:window-x="744"
     inkscape:window-y="340"
     inkscape:window-maximized="0"
     inkscape:current-layer="svg5" />
  <defs
     id="defs1">
    <style
       id="style1">.d{font-family:TrebuchetMS, Trebuchet MS;font-size:294.805px;}.e{letter-spacing:-.074em;}.e,.f,.g{fill:aqua;}.f{letter-spacing:-.065em;}.h{fill:none;stroke:#ffa800;stroke-miterlimit:10;stroke-width:16px;}.i{fill:#daffff;letter-spacing:-.01em;}.g{letter-spacing:-.01em;}</style>
  </defs>
  <g
     id="a" />
  <g
     id="text4"
     class="d"
     style="font-size:294.805px;font-family:TrebuchetMS, 'Trebuchet MS'"
     transform="matrix(1.0968068,0,0,1,0.29977287,408.382)"
     aria-label="VetRA">
    <path
       style="fill:#00ffff"
       d="M 95.005515,2.878955 H 80.466792 L 1.8713208,-210.88345 H 33.827721 L 88.096023,-55.563832 140.34906,-210.88345 h 30.94876 z"
       id="path6" />
    <path
       style="fill:#daffff"
       d="M 300.49382,-74.420987 H 189.36616 q 0,27.062177 14.82661,41.6009 13.09925,12.667402 33.68378,12.667402 23.46348,0 39.15379,-13.675036 l 11.51582,19.720841 q -6.33371,6.3337015 -19.43295,10.9400295 -16.41004,6.0458055 -36.56273,6.0458055 -29.07745,0 -49.37408,-19.720842 -22.5998,-21.73611 -22.5998,-58.442786 0,-38.146157 23.17559,-61.177797 20.72848,-20.58453 49.08619,-20.58453 32.96403,0 51.67724,18.56926 18.13741,17.84953 18.13741,47.358814 0,9.068708 -2.15921,16.697939 z m -66.35991,-59.594373 q -18.28137,0 -30.66088,11.80372 -11.80371,11.22792 -13.38714,27.925864 h 85.36102 q 0,-16.553994 -10.36424,-27.637964 -11.37187,-12.09162 -30.94876,-12.09162 z m 104.14908,1.43948 h -17.84952 v -21.59216 h 17.84952 v -32.2443 l 27.35008,-10.50818 v 42.75248 h 42.32063 v 21.59216 h -42.32063 v 76.580205 q 0,19.432946 6.47764,27.637968 6.6216,8.205022 21.16032,8.205022 10.50819,0 21.73611,-5.326067 l 4.03054,24.0392745 q -16.98583,4.3184325 -37.28247,4.3184325 -18.28136,0 -30.94876,-13.531089 -12.52346,-13.675036 -12.52346,-34.403512 z"
       id="path7" />
    <path
       style="fill:#00ffff"
       d="m 561.62168,0 -56.28357,-90.543135 q -9.6445,0 -30.51692,-1.439477 V 0 h -28.78955 v -210.88345 q 1.58343,0 22.3119,-1.00764 20.87243,-1.15158 30.37298,-1.15158 76.00441,0 76.00441,60.45805 0,19.86479 -12.23556,35.84299 -12.23556,15.83426 -29.07745,19.720846 L 594.58572,0 Z m -86.80049,-184.97286 v 68.51913 q 10.36424,1.43948 20.15269,1.43948 25.91059,0 37.71431,-8.34897 11.80371,-8.34897 11.80371,-29.79719 0,-17.70557 -12.6674,-25.47875 -12.6674,-7.77318 -40.01748,-7.77318 -4.31843,0 -16.98583,1.43948 z"
       id="path8" />
    <path
       style="fill:#00ffff"
       d="M 732.99469,0 718.45597,-44.479855 H 640.00444 L 624.45809,0 h -32.2443 l 85.64891,-213.76241 h 7.62923 L 764.95109,0 Z m -52.68488,-158.48647 -32.67613,92.846296 h 62.61727 z"
       id="path9" />
  </g>
  <path
     style="color:#000000;fill:#ffa800;stroke-width:0.873185;stroke-miterlimit:10;-inkscape-stroke:none"
     d="m 398.51052,62.60029 c -17.74007,27.270715 -53.9947,22.113239 -53.9947,22.113239 l -7.99619,-1.177597 V 133.07526 H 181.20071 v 51.21185 h 13.96094 V 147.05625 H 350.48058 V 99.040971 c 13.91897,0.178705 42.8257,-2.826097 59.72769,-28.808482 z"
     id="path4" />
  <path
     style="color:#000000;fill:#ffa800;stroke-width:0.873185;stroke-miterlimit:10;-inkscape-stroke:none"
     d="m 445.73609,63.289781 -11.69605,7.630493 c 16.902,25.982383 45.80702,28.987187 59.72599,28.808482 v 48.015274 h 155.33086 l 0.0529,32.16036 13.96095,-0.0239 -0.0767,-46.11746 H 507.72698 V 84.225424 l -7.99449,1.175891 c 0,0 -36.25633,5.159181 -53.9964,-22.111534 z"
     id="path5" />
  <path
     style="color:#000000;fill:#ffa800;stroke-width:0.668381;stroke-miterlimit:10;-inkscape-stroke:none"
     d="m 421.89475,37.991906 c -13.23361,0 -23.84177,11.517318 -23.84177,25.298536 0,13.781219 10.60816,25.297214 23.84177,25.297214 13.23362,0 23.84177,-11.515995 23.84177,-25.297214 0,-13.781218 -10.60815,-25.298536 -23.84177,-25.298536 z m 0,10.827313 c 7.26756,0 13.27924,6.288804 13.27924,14.471223 0,8.182418 -6.01168,14.469901 -13.27924,14.469901 -7.26756,0 -13.27924,-6.287483 -13.27924,-14.469901 0,-8.182419 6.01168,-14.471223 13.27924,-14.471223 z"
     id="ellipse5" />
  <path
     style="color:#000000;fill:#ffa800;stroke-width:0.934109;stroke-miterlimit:10;-inkscape-stroke:none"
     d="m 175.00077,418.61914 v 49.97852 H 663.90994 V 429.81445 H 649.949 v 22.78321 H 188.96171 v -33.97852 z"
     id="polyline5" />
  <g
     id="c" />
</svg>
